<mxfile host="Electron" modified="2023-12-31T18:11:00.931Z" agent="Mozilla/5.0 (Windows NT 10.0; Win64; x64) AppleWebKit/537.36 (KHTML, like Gecko) draw.io/22.1.11 Chrome/114.0.5735.289 Electron/25.9.8 Safari/537.36" etag="mia3kyVbT61AIaObT5G9" version="22.1.11" type="device">
  <diagram name="Page-1" id="2YBvvXClWsGukQMizWep">
    <mxGraphModel dx="4030" dy="1773" grid="1" gridSize="10" guides="1" tooltips="1" connect="1" arrows="1" fold="1" page="1" pageScale="1" pageWidth="850" pageHeight="1100" math="0" shadow="0">
      <root>
        <mxCell id="0" />
        <mxCell id="1" parent="0" />
        <mxCell id="T0xmaipd4D4o1bpUxQvA-11" value="login_page" style="shape=umlLifeline;perimeter=lifelinePerimeter;whiteSpace=wrap;html=1;container=1;dropTarget=0;collapsible=0;recursiveResize=0;outlineConnect=0;portConstraint=eastwest;newEdgeStyle={&quot;curved&quot;:0,&quot;rounded&quot;:0};" parent="1" vertex="1">
          <mxGeometry x="360" y="40" width="120" height="2480" as="geometry" />
        </mxCell>
        <mxCell id="T0xmaipd4D4o1bpUxQvA-12" value="registeration_page" style="shape=umlLifeline;perimeter=lifelinePerimeter;whiteSpace=wrap;html=1;container=1;dropTarget=0;collapsible=0;recursiveResize=0;outlineConnect=0;portConstraint=eastwest;newEdgeStyle={&quot;curved&quot;:0,&quot;rounded&quot;:0};" parent="1" vertex="1">
          <mxGeometry x="150" y="40" width="120" height="2480" as="geometry" />
        </mxCell>
        <mxCell id="T0xmaipd4D4o1bpUxQvA-13" value="own_library" style="shape=umlLifeline;perimeter=lifelinePerimeter;whiteSpace=wrap;html=1;container=1;dropTarget=0;collapsible=0;recursiveResize=0;outlineConnect=0;portConstraint=eastwest;newEdgeStyle={&quot;curved&quot;:0,&quot;rounded&quot;:0};" parent="1" vertex="1">
          <mxGeometry x="560" y="40" width="120" height="570" as="geometry" />
        </mxCell>
        <mxCell id="D9D6KRNomKYk3iCFj7v9-1" value="" style="html=1;points=[[0,0,0,0,5],[0,1,0,0,-5],[1,0,0,0,5],[1,1,0,0,-5]];perimeter=orthogonalPerimeter;outlineConnect=0;targetShapes=umlLifeline;portConstraint=eastwest;newEdgeStyle={&quot;curved&quot;:0,&quot;rounded&quot;:0};" vertex="1" parent="T0xmaipd4D4o1bpUxQvA-13">
          <mxGeometry x="55" y="410" width="10" height="40" as="geometry" />
        </mxCell>
        <mxCell id="T0xmaipd4D4o1bpUxQvA-14" value="favourite_library" style="shape=umlLifeline;perimeter=lifelinePerimeter;whiteSpace=wrap;html=1;container=1;dropTarget=0;collapsible=0;recursiveResize=0;outlineConnect=0;portConstraint=eastwest;newEdgeStyle={&quot;curved&quot;:0,&quot;rounded&quot;:0};" parent="1" vertex="1">
          <mxGeometry x="760" y="40" width="120" height="1110" as="geometry" />
        </mxCell>
        <mxCell id="T0xmaipd4D4o1bpUxQvA-15" value="wishlist_library" style="shape=umlLifeline;perimeter=lifelinePerimeter;whiteSpace=wrap;html=1;container=1;dropTarget=0;collapsible=0;recursiveResize=0;outlineConnect=0;portConstraint=eastwest;newEdgeStyle={&quot;curved&quot;:0,&quot;rounded&quot;:0};" parent="1" vertex="1">
          <mxGeometry x="960" y="40" width="120" height="1160" as="geometry" />
        </mxCell>
        <mxCell id="T0xmaipd4D4o1bpUxQvA-19" value="" style="shape=umlLifeline;perimeter=lifelinePerimeter;whiteSpace=wrap;html=1;container=1;dropTarget=0;collapsible=0;recursiveResize=0;outlineConnect=0;portConstraint=eastwest;newEdgeStyle={&quot;curved&quot;:0,&quot;rounded&quot;:0};participant=umlActor;" parent="1" vertex="1">
          <mxGeometry x="30" y="40" width="20" height="1600" as="geometry" />
        </mxCell>
        <mxCell id="T0xmaipd4D4o1bpUxQvA-20" value="" style="html=1;points=[[0,0,0,0,5],[0,1,0,0,-5],[1,0,0,0,5],[1,1,0,0,-5]];perimeter=orthogonalPerimeter;outlineConnect=0;targetShapes=umlLifeline;portConstraint=eastwest;newEdgeStyle={&quot;curved&quot;:0,&quot;rounded&quot;:0};" parent="T0xmaipd4D4o1bpUxQvA-19" vertex="1">
          <mxGeometry x="5" y="310" width="10" height="150" as="geometry" />
        </mxCell>
        <mxCell id="T0xmaipd4D4o1bpUxQvA-33" value="" style="html=1;points=[[0,0,0,0,5],[0,1,0,0,-5],[1,0,0,0,5],[1,1,0,0,-5]];perimeter=orthogonalPerimeter;outlineConnect=0;targetShapes=umlLifeline;portConstraint=eastwest;newEdgeStyle={&quot;curved&quot;:0,&quot;rounded&quot;:0};" parent="T0xmaipd4D4o1bpUxQvA-19" vertex="1">
          <mxGeometry x="5" y="480" width="10" height="320" as="geometry" />
        </mxCell>
        <mxCell id="T0xmaipd4D4o1bpUxQvA-55" value="" style="html=1;points=[[0,0,0,0,5],[0,1,0,0,-5],[1,0,0,0,5],[1,1,0,0,-5]];perimeter=orthogonalPerimeter;outlineConnect=0;targetShapes=umlLifeline;portConstraint=eastwest;newEdgeStyle={&quot;curved&quot;:0,&quot;rounded&quot;:0};" parent="T0xmaipd4D4o1bpUxQvA-19" vertex="1">
          <mxGeometry x="6" y="1150" width="10" height="90" as="geometry" />
        </mxCell>
        <mxCell id="D9D6KRNomKYk3iCFj7v9-33" value="" style="html=1;points=[[0,0,0,0,5],[0,1,0,0,-5],[1,0,0,0,5],[1,1,0,0,-5]];perimeter=orthogonalPerimeter;outlineConnect=0;targetShapes=umlLifeline;portConstraint=eastwest;newEdgeStyle={&quot;curved&quot;:0,&quot;rounded&quot;:0};" vertex="1" parent="T0xmaipd4D4o1bpUxQvA-19">
          <mxGeometry x="5" y="1410" width="10" height="80" as="geometry" />
        </mxCell>
        <mxCell id="T0xmaipd4D4o1bpUxQvA-21" value="login_user" style="html=1;verticalAlign=bottom;endArrow=block;curved=0;rounded=0;exitX=1;exitY=0;exitDx=0;exitDy=5;exitPerimeter=0;entryX=0;entryY=0;entryDx=0;entryDy=5;entryPerimeter=0;" parent="1" source="T0xmaipd4D4o1bpUxQvA-20" edge="1">
          <mxGeometry width="80" relative="1" as="geometry">
            <mxPoint x="360" y="420" as="sourcePoint" />
            <mxPoint x="415" y="355" as="targetPoint" />
          </mxGeometry>
        </mxCell>
        <mxCell id="T0xmaipd4D4o1bpUxQvA-23" value="current_user" style="shape=umlFrame;whiteSpace=wrap;html=1;pointerEvents=0;width=80;height=30;" parent="1" vertex="1">
          <mxGeometry x="-110" y="320" width="2430" height="180" as="geometry" />
        </mxCell>
        <mxCell id="T0xmaipd4D4o1bpUxQvA-47" value="check_login" style="html=1;verticalAlign=bottom;endArrow=block;curved=0;rounded=0;" parent="1" target="T0xmaipd4D4o1bpUxQvA-46" edge="1">
          <mxGeometry width="80" relative="1" as="geometry">
            <mxPoint x="425" y="360" as="sourcePoint" />
            <mxPoint x="1416" y="360" as="targetPoint" />
          </mxGeometry>
        </mxCell>
        <mxCell id="T0xmaipd4D4o1bpUxQvA-48" value="[login_state[login/wrong data]" style="html=1;verticalAlign=bottom;endArrow=open;dashed=1;endSize=8;curved=0;rounded=0;" parent="1" edge="1">
          <mxGeometry x="-0.0004" relative="1" as="geometry">
            <mxPoint x="2181" y="379.5800000000001" as="sourcePoint" />
            <mxPoint x="425" y="379.58000000000004" as="targetPoint" />
            <mxPoint as="offset" />
          </mxGeometry>
        </mxCell>
        <mxCell id="T0xmaipd4D4o1bpUxQvA-57" value="gui" style="html=1;verticalAlign=bottom;endArrow=block;curved=0;rounded=0;" parent="1" edge="1">
          <mxGeometry x="0.0005" width="80" relative="1" as="geometry">
            <mxPoint x="46.5" y="1200" as="sourcePoint" />
            <mxPoint x="1016" y="1200" as="targetPoint" />
            <Array as="points">
              <mxPoint x="771" y="1200" />
            </Array>
            <mxPoint as="offset" />
          </mxGeometry>
        </mxCell>
        <mxCell id="T0xmaipd4D4o1bpUxQvA-59" value="display" style="html=1;verticalAlign=bottom;endArrow=open;dashed=1;endSize=8;curved=0;rounded=0;exitX=0;exitY=1;exitDx=0;exitDy=-5;exitPerimeter=0;" parent="1" edge="1">
          <mxGeometry relative="1" as="geometry">
            <mxPoint x="1016" y="1255" as="sourcePoint" />
            <mxPoint x="46" y="1250" as="targetPoint" />
          </mxGeometry>
        </mxCell>
        <mxCell id="T0xmaipd4D4o1bpUxQvA-61" value="user_whishlist" style="html=1;verticalAlign=bottom;endArrow=block;curved=0;rounded=0;" parent="1" source="T0xmaipd4D4o1bpUxQvA-56" target="T0xmaipd4D4o1bpUxQvA-60" edge="1">
          <mxGeometry width="80" relative="1" as="geometry">
            <mxPoint x="1027" y="1210.0000000000002" as="sourcePoint" />
            <mxPoint x="1577" y="1210.0000000000002" as="targetPoint" />
            <Array as="points">
              <mxPoint x="1291.5" y="1210" />
            </Array>
          </mxGeometry>
        </mxCell>
        <mxCell id="T0xmaipd4D4o1bpUxQvA-62" value="query_result" style="html=1;verticalAlign=bottom;endArrow=open;dashed=1;endSize=8;curved=0;rounded=0;" parent="1" source="T0xmaipd4D4o1bpUxQvA-60" edge="1">
          <mxGeometry relative="1" as="geometry">
            <mxPoint x="1577" y="1240" as="sourcePoint" />
            <mxPoint x="1027" y="1240" as="targetPoint" />
          </mxGeometry>
        </mxCell>
        <mxCell id="T0xmaipd4D4o1bpUxQvA-64" value="" style="html=1;points=[[0,0,0,0,5],[0,1,0,0,-5],[1,0,0,0,5],[1,1,0,0,-5]];perimeter=orthogonalPerimeter;outlineConnect=0;targetShapes=umlLifeline;portConstraint=eastwest;newEdgeStyle={&quot;curved&quot;:0,&quot;rounded&quot;:0};" parent="1" vertex="1">
          <mxGeometry x="415" y="350" width="10" height="130" as="geometry" />
        </mxCell>
        <mxCell id="T0xmaipd4D4o1bpUxQvA-65" value="if false slef call" style="html=1;align=left;spacingLeft=2;endArrow=block;rounded=0;edgeStyle=orthogonalEdgeStyle;curved=0;rounded=0;exitX=1;exitY=1;exitDx=0;exitDy=-5;exitPerimeter=0;" parent="1" edge="1">
          <mxGeometry relative="1" as="geometry">
            <mxPoint x="425" y="420" as="sourcePoint" />
            <Array as="points">
              <mxPoint x="425" y="390" />
              <mxPoint x="520" y="390" />
              <mxPoint x="520" y="415" />
            </Array>
            <mxPoint x="425" y="415" as="targetPoint" />
          </mxGeometry>
        </mxCell>
        <mxCell id="T0xmaipd4D4o1bpUxQvA-68" value="book_describtion_window_for_reader" style="shape=umlLifeline;perimeter=lifelinePerimeter;whiteSpace=wrap;html=1;container=1;dropTarget=0;collapsible=0;recursiveResize=0;outlineConnect=0;portConstraint=eastwest;newEdgeStyle={&quot;curved&quot;:0,&quot;rounded&quot;:0};" parent="1" vertex="1">
          <mxGeometry x="1360" y="40" width="200" height="1600" as="geometry" />
        </mxCell>
        <mxCell id="T0xmaipd4D4o1bpUxQvA-24" value="" style="html=1;points=[[0,0,0,0,5],[0,1,0,0,-5],[1,0,0,0,5],[1,1,0,0,-5]];perimeter=orthogonalPerimeter;outlineConnect=0;targetShapes=umlLifeline;portConstraint=eastwest;newEdgeStyle={&quot;curved&quot;:0,&quot;rounded&quot;:0};" parent="T0xmaipd4D4o1bpUxQvA-68" vertex="1">
          <mxGeometry x="-1325" y="110" width="10" height="80" as="geometry" />
        </mxCell>
        <mxCell id="T0xmaipd4D4o1bpUxQvA-26" value="check_register" style="html=1;verticalAlign=bottom;endArrow=block;curved=0;rounded=0;entryX=0;entryY=0;entryDx=0;entryDy=5;entryPerimeter=0;" parent="T0xmaipd4D4o1bpUxQvA-68" source="T0xmaipd4D4o1bpUxQvA-24" target="T0xmaipd4D4o1bpUxQvA-25" edge="1">
          <mxGeometry width="80" relative="1" as="geometry">
            <mxPoint x="-980" y="180" as="sourcePoint" />
            <mxPoint x="-1160" y="120" as="targetPoint" />
          </mxGeometry>
        </mxCell>
        <mxCell id="T0xmaipd4D4o1bpUxQvA-28" value="new_user&lt;br&gt;" style="shape=umlFrame;whiteSpace=wrap;html=1;pointerEvents=0;width=80;height=30;" parent="T0xmaipd4D4o1bpUxQvA-68" vertex="1">
          <mxGeometry x="-1470" y="80" width="2430" height="160" as="geometry" />
        </mxCell>
        <mxCell id="T0xmaipd4D4o1bpUxQvA-25" value="" style="html=1;points=[[0,0,0,0,5],[0,1,0,0,-5],[1,0,0,0,5],[1,1,0,0,-5]];perimeter=orthogonalPerimeter;outlineConnect=0;targetShapes=umlLifeline;portConstraint=eastwest;newEdgeStyle={&quot;curved&quot;:0,&quot;rounded&quot;:0};" parent="T0xmaipd4D4o1bpUxQvA-68" vertex="1">
          <mxGeometry x="-1155" y="110" width="10" height="80" as="geometry" />
        </mxCell>
        <mxCell id="T0xmaipd4D4o1bpUxQvA-29" value="show database.sign_in result" style="html=1;verticalAlign=bottom;endArrow=open;dashed=1;endSize=8;curved=0;rounded=0;" parent="T0xmaipd4D4o1bpUxQvA-68" edge="1">
          <mxGeometry relative="1" as="geometry">
            <mxPoint x="-1155" y="180" as="sourcePoint" />
            <mxPoint x="-1315" y="180" as="targetPoint" />
          </mxGeometry>
        </mxCell>
        <mxCell id="T0xmaipd4D4o1bpUxQvA-43" value="database.sign_in" style="html=1;verticalAlign=bottom;endArrow=block;curved=0;rounded=0;" parent="T0xmaipd4D4o1bpUxQvA-68" target="T0xmaipd4D4o1bpUxQvA-42" edge="1">
          <mxGeometry width="80" relative="1" as="geometry">
            <mxPoint x="-1150.5" y="130" as="sourcePoint" />
            <mxPoint x="-970" y="140" as="targetPoint" />
          </mxGeometry>
        </mxCell>
        <mxCell id="T0xmaipd4D4o1bpUxQvA-56" value="" style="html=1;points=[[0,0,0,0,5],[0,1,0,0,-5],[1,0,0,0,5],[1,1,0,0,-5]];perimeter=orthogonalPerimeter;outlineConnect=0;targetShapes=umlLifeline;portConstraint=eastwest;newEdgeStyle={&quot;curved&quot;:0,&quot;rounded&quot;:0};" parent="1" vertex="1">
          <mxGeometry x="1016" y="1190" width="10" height="80" as="geometry" />
        </mxCell>
        <mxCell id="T0xmaipd4D4o1bpUxQvA-80" value="request_for_book_data" style="html=1;verticalAlign=bottom;endArrow=block;curved=0;rounded=0;" parent="1" edge="1" source="T0xmaipd4D4o1bpUxQvA-79">
          <mxGeometry width="80" relative="1" as="geometry">
            <mxPoint x="1430" y="560" as="sourcePoint" />
            <mxPoint x="2180" y="560" as="targetPoint" />
          </mxGeometry>
        </mxCell>
        <mxCell id="T0xmaipd4D4o1bpUxQvA-82" value="label_clicked" style="html=1;verticalAlign=bottom;endArrow=block;curved=0;rounded=0;" parent="1" edge="1">
          <mxGeometry width="80" relative="1" as="geometry">
            <mxPoint x="619.3235294117649" y="549" as="sourcePoint" />
            <mxPoint x="1455" y="549" as="targetPoint" />
          </mxGeometry>
        </mxCell>
        <mxCell id="T0xmaipd4D4o1bpUxQvA-83" value="show_book page_with_data" style="html=1;verticalAlign=bottom;endArrow=open;dashed=1;endSize=8;curved=0;rounded=0;" parent="1" edge="1">
          <mxGeometry relative="1" as="geometry">
            <mxPoint x="1455" y="590" as="sourcePoint" />
            <mxPoint x="45" y="590" as="targetPoint" />
          </mxGeometry>
        </mxCell>
        <mxCell id="T0xmaipd4D4o1bpUxQvA-37" value="" style="html=1;points=[[0,0,0,0,5],[0,1,0,0,-5],[1,0,0,0,5],[1,1,0,0,-5]];perimeter=orthogonalPerimeter;outlineConnect=0;targetShapes=umlLifeline;portConstraint=eastwest;newEdgeStyle={&quot;curved&quot;:0,&quot;rounded&quot;:0};" parent="1" vertex="1">
          <mxGeometry x="815" y="890" width="10" height="80" as="geometry" />
        </mxCell>
        <mxCell id="T0xmaipd4D4o1bpUxQvA-36" value="" style="html=1;points=[[0,0,0,0,5],[0,1,0,0,-5],[1,0,0,0,5],[1,1,0,0,-5]];perimeter=orthogonalPerimeter;outlineConnect=0;targetShapes=umlLifeline;portConstraint=eastwest;newEdgeStyle={&quot;curved&quot;:0,&quot;rounded&quot;:0};" parent="1" vertex="1">
          <mxGeometry x="35" y="890" width="10" height="90" as="geometry" />
        </mxCell>
        <mxCell id="T0xmaipd4D4o1bpUxQvA-38" value="gui" style="html=1;verticalAlign=bottom;endArrow=block;curved=0;rounded=0;" parent="1" edge="1">
          <mxGeometry width="80" relative="1" as="geometry">
            <mxPoint x="45" y="900" as="sourcePoint" />
            <mxPoint x="815" y="900" as="targetPoint" />
          </mxGeometry>
        </mxCell>
        <mxCell id="T0xmaipd4D4o1bpUxQvA-39" value="display" style="html=1;verticalAlign=bottom;endArrow=open;dashed=1;endSize=8;curved=0;rounded=0;exitX=-0.283;exitY=0.865;exitDx=0;exitDy=0;exitPerimeter=0;" parent="1" edge="1">
          <mxGeometry relative="1" as="geometry">
            <mxPoint x="815.0000000000001" y="950" as="sourcePoint" />
            <mxPoint x="47.83" y="950" as="targetPoint" />
          </mxGeometry>
        </mxCell>
        <mxCell id="T0xmaipd4D4o1bpUxQvA-53" value="user_favouriite" style="html=1;verticalAlign=bottom;endArrow=block;curved=0;rounded=0;exitX=1;exitY=0;exitDx=0;exitDy=5;exitPerimeter=0;" parent="1" target="T0xmaipd4D4o1bpUxQvA-52" edge="1">
          <mxGeometry width="80" relative="1" as="geometry">
            <mxPoint x="825" y="910" as="sourcePoint" />
            <mxPoint x="1415" y="910" as="targetPoint" />
          </mxGeometry>
        </mxCell>
        <mxCell id="T0xmaipd4D4o1bpUxQvA-54" value="query_result&lt;br&gt;" style="html=1;verticalAlign=bottom;endArrow=open;dashed=1;endSize=8;curved=0;rounded=0;" parent="1" edge="1">
          <mxGeometry relative="1" as="geometry">
            <mxPoint x="2181" y="929.5" as="sourcePoint" />
            <mxPoint x="827" y="929.5" as="targetPoint" />
          </mxGeometry>
        </mxCell>
        <mxCell id="T0xmaipd4D4o1bpUxQvA-17" value="database&lt;br&gt;" style="shape=umlLifeline;perimeter=lifelinePerimeter;whiteSpace=wrap;html=1;container=1;dropTarget=0;collapsible=0;recursiveResize=0;outlineConnect=0;portConstraint=eastwest;newEdgeStyle={&quot;curved&quot;:0,&quot;rounded&quot;:0};" parent="1" vertex="1">
          <mxGeometry x="2125" y="40" width="120" height="2480" as="geometry" />
        </mxCell>
        <mxCell id="T0xmaipd4D4o1bpUxQvA-49" value="" style="html=1;points=[[0,0,0,0,5],[0,1,0,0,-5],[1,0,0,0,5],[1,1,0,0,-5]];perimeter=orthogonalPerimeter;outlineConnect=0;targetShapes=umlLifeline;portConstraint=eastwest;newEdgeStyle={&quot;curved&quot;:0,&quot;rounded&quot;:0};" parent="T0xmaipd4D4o1bpUxQvA-17" vertex="1">
          <mxGeometry x="55" y="480" width="10" height="280" as="geometry" />
        </mxCell>
        <mxCell id="T0xmaipd4D4o1bpUxQvA-60" value="" style="html=1;points=[[0,0,0,0,5],[0,1,0,0,-5],[1,0,0,0,5],[1,1,0,0,-5]];perimeter=orthogonalPerimeter;outlineConnect=0;targetShapes=umlLifeline;portConstraint=eastwest;newEdgeStyle={&quot;curved&quot;:0,&quot;rounded&quot;:0};" parent="T0xmaipd4D4o1bpUxQvA-17" vertex="1">
          <mxGeometry x="56" y="1150" width="10" height="90" as="geometry" />
        </mxCell>
        <mxCell id="T0xmaipd4D4o1bpUxQvA-90" value="" style="html=1;points=[[0,0,0,0,5],[0,1,0,0,-5],[1,0,0,0,5],[1,1,0,0,-5]];perimeter=orthogonalPerimeter;outlineConnect=0;targetShapes=umlLifeline;portConstraint=eastwest;newEdgeStyle={&quot;curved&quot;:0,&quot;rounded&quot;:0};" parent="T0xmaipd4D4o1bpUxQvA-17" vertex="1">
          <mxGeometry x="55" y="1420" width="10" height="100" as="geometry" />
        </mxCell>
        <mxCell id="T0xmaipd4D4o1bpUxQvA-143" value="" style="html=1;points=[[0,0,0,0,5],[0,1,0,0,-5],[1,0,0,0,5],[1,1,0,0,-5]];perimeter=orthogonalPerimeter;outlineConnect=0;targetShapes=umlLifeline;portConstraint=eastwest;newEdgeStyle={&quot;curved&quot;:0,&quot;rounded&quot;:0};" parent="T0xmaipd4D4o1bpUxQvA-17" vertex="1">
          <mxGeometry x="55" y="2240" width="10" height="80" as="geometry" />
        </mxCell>
        <mxCell id="T0xmaipd4D4o1bpUxQvA-46" value="" style="html=1;points=[[0,0,0,0,5],[0,1,0,0,-5],[1,0,0,0,5],[1,1,0,0,-5]];perimeter=orthogonalPerimeter;outlineConnect=0;targetShapes=umlLifeline;portConstraint=eastwest;newEdgeStyle={&quot;curved&quot;:0,&quot;rounded&quot;:0};" parent="1" vertex="1">
          <mxGeometry x="2181" y="350" width="10" height="80" as="geometry" />
        </mxCell>
        <mxCell id="T0xmaipd4D4o1bpUxQvA-42" value="" style="html=1;points=[[0,0,0,0,5],[0,1,0,0,-5],[1,0,0,0,5],[1,1,0,0,-5]];perimeter=orthogonalPerimeter;outlineConnect=0;targetShapes=umlLifeline;portConstraint=eastwest;newEdgeStyle={&quot;curved&quot;:0,&quot;rounded&quot;:0};" parent="1" vertex="1">
          <mxGeometry x="2180" y="160" width="10" height="80" as="geometry" />
        </mxCell>
        <mxCell id="T0xmaipd4D4o1bpUxQvA-45" value="registeration_state[existet/signed succefuly]]" style="html=1;verticalAlign=bottom;endArrow=open;dashed=1;endSize=8;curved=0;rounded=0;" parent="1" source="T0xmaipd4D4o1bpUxQvA-42" target="T0xmaipd4D4o1bpUxQvA-25" edge="1">
          <mxGeometry relative="1" as="geometry">
            <mxPoint x="800" y="350" as="sourcePoint" />
            <mxPoint x="720" y="350" as="targetPoint" />
          </mxGeometry>
        </mxCell>
        <mxCell id="T0xmaipd4D4o1bpUxQvA-52" value="" style="html=1;points=[[0,0,0,0,5],[0,1,0,0,-5],[1,0,0,0,5],[1,1,0,0,-5]];perimeter=orthogonalPerimeter;outlineConnect=0;targetShapes=umlLifeline;portConstraint=eastwest;newEdgeStyle={&quot;curved&quot;:0,&quot;rounded&quot;:0};" parent="1" vertex="1">
          <mxGeometry x="2180" y="890" width="10" height="70" as="geometry" />
        </mxCell>
        <mxCell id="T0xmaipd4D4o1bpUxQvA-108" value="" style="shape=umlLifeline;perimeter=lifelinePerimeter;whiteSpace=wrap;html=1;container=1;dropTarget=0;collapsible=0;recursiveResize=0;outlineConnect=0;portConstraint=eastwest;newEdgeStyle={&quot;curved&quot;:0,&quot;rounded&quot;:0};participant=umlActor;" parent="1" vertex="1">
          <mxGeometry x="-310" y="40" width="20" height="2510" as="geometry" />
        </mxCell>
        <mxCell id="T0xmaipd4D4o1bpUxQvA-147" value="" style="html=1;points=[[0,0,0,0,5],[0,1,0,0,-5],[1,0,0,0,5],[1,1,0,0,-5]];perimeter=orthogonalPerimeter;outlineConnect=0;targetShapes=umlLifeline;portConstraint=eastwest;newEdgeStyle={&quot;curved&quot;:0,&quot;rounded&quot;:0};" parent="T0xmaipd4D4o1bpUxQvA-108" vertex="1">
          <mxGeometry x="5" y="2240" width="10" height="110" as="geometry" />
        </mxCell>
        <mxCell id="T0xmaipd4D4o1bpUxQvA-109" value="store" style="text;align=center;fontStyle=1;verticalAlign=middle;spacingLeft=3;spacingRight=3;strokeColor=none;rotatable=0;points=[[0,0.5],[1,0.5]];portConstraint=eastwest;html=1;" parent="1" vertex="1">
          <mxGeometry x="-340" y="10" width="80" height="26" as="geometry" />
        </mxCell>
        <mxCell id="T0xmaipd4D4o1bpUxQvA-110" value="reader" style="text;align=center;fontStyle=1;verticalAlign=middle;spacingLeft=3;spacingRight=3;strokeColor=none;rotatable=0;points=[[0,0.5],[1,0.5]];portConstraint=eastwest;html=1;" parent="1" vertex="1">
          <mxGeometry x="1" width="80" height="26" as="geometry" />
        </mxCell>
        <mxCell id="T0xmaipd4D4o1bpUxQvA-111" value="store_library" style="shape=umlLifeline;perimeter=lifelinePerimeter;whiteSpace=wrap;html=1;container=1;dropTarget=0;collapsible=0;recursiveResize=0;outlineConnect=0;portConstraint=eastwest;newEdgeStyle={&quot;curved&quot;:0,&quot;rounded&quot;:0};" parent="1" vertex="1">
          <mxGeometry x="1630" y="40" width="150" height="2480" as="geometry" />
        </mxCell>
        <mxCell id="T0xmaipd4D4o1bpUxQvA-135" value="" style="html=1;points=[[0,0,0,0,5],[0,1,0,0,-5],[1,0,0,0,5],[1,1,0,0,-5]];perimeter=orthogonalPerimeter;outlineConnect=0;targetShapes=umlLifeline;portConstraint=eastwest;newEdgeStyle={&quot;curved&quot;:0,&quot;rounded&quot;:0};" parent="T0xmaipd4D4o1bpUxQvA-111" vertex="1">
          <mxGeometry x="70" y="1980" width="10" height="80" as="geometry" />
        </mxCell>
        <mxCell id="D9D6KRNomKYk3iCFj7v9-29" value="" style="html=1;points=[[0,0,0,0,5],[0,1,0,0,-5],[1,0,0,0,5],[1,1,0,0,-5]];perimeter=orthogonalPerimeter;outlineConnect=0;targetShapes=umlLifeline;portConstraint=eastwest;newEdgeStyle={&quot;curved&quot;:0,&quot;rounded&quot;:0};" vertex="1" parent="T0xmaipd4D4o1bpUxQvA-111">
          <mxGeometry x="70" y="2230" width="10" height="110" as="geometry" />
        </mxCell>
        <mxCell id="T0xmaipd4D4o1bpUxQvA-86" value="" style="html=1;points=[[0,0,0,0,5],[0,1,0,0,-5],[1,0,0,0,5],[1,1,0,0,-5]];perimeter=orthogonalPerimeter;outlineConnect=0;targetShapes=umlLifeline;portConstraint=eastwest;newEdgeStyle={&quot;curved&quot;:0,&quot;rounded&quot;:0};" parent="T0xmaipd4D4o1bpUxQvA-111" vertex="1">
          <mxGeometry x="70" y="1420" width="10" height="80" as="geometry" />
        </mxCell>
        <mxCell id="T0xmaipd4D4o1bpUxQvA-95" value="store_books" style="html=1;verticalAlign=bottom;endArrow=block;curved=0;rounded=0;" parent="T0xmaipd4D4o1bpUxQvA-111" target="T0xmaipd4D4o1bpUxQvA-90" edge="1">
          <mxGeometry width="80" relative="1" as="geometry">
            <mxPoint x="80" y="1440" as="sourcePoint" />
            <mxPoint x="1025" y="1440" as="targetPoint" />
          </mxGeometry>
        </mxCell>
        <mxCell id="T0xmaipd4D4o1bpUxQvA-113" value="add_window" style="shape=umlLifeline;perimeter=lifelinePerimeter;whiteSpace=wrap;html=1;container=1;dropTarget=0;collapsible=0;recursiveResize=0;outlineConnect=0;portConstraint=eastwest;newEdgeStyle={&quot;curved&quot;:0,&quot;rounded&quot;:0};" parent="1" vertex="1">
          <mxGeometry x="1890" y="40" width="110" height="2480" as="geometry" />
        </mxCell>
        <mxCell id="T0xmaipd4D4o1bpUxQvA-142" value="" style="html=1;points=[[0,0,0,0,5],[0,1,0,0,-5],[1,0,0,0,5],[1,1,0,0,-5]];perimeter=orthogonalPerimeter;outlineConnect=0;targetShapes=umlLifeline;portConstraint=eastwest;newEdgeStyle={&quot;curved&quot;:0,&quot;rounded&quot;:0};" parent="T0xmaipd4D4o1bpUxQvA-113" vertex="1">
          <mxGeometry x="50" y="2240" width="10" height="90" as="geometry" />
        </mxCell>
        <mxCell id="T0xmaipd4D4o1bpUxQvA-114" value="" style="html=1;points=[[0,0,0,0,5],[0,1,0,0,-5],[1,0,0,0,5],[1,1,0,0,-5]];perimeter=orthogonalPerimeter;outlineConnect=0;targetShapes=umlLifeline;portConstraint=eastwest;newEdgeStyle={&quot;curved&quot;:0,&quot;rounded&quot;:0};" parent="1" vertex="1">
          <mxGeometry x="-305" y="1960" width="10" height="150" as="geometry" />
        </mxCell>
        <mxCell id="T0xmaipd4D4o1bpUxQvA-115" value="login_user" style="html=1;verticalAlign=bottom;endArrow=block;curved=0;rounded=0;exitX=1;exitY=0;exitDx=0;exitDy=5;exitPerimeter=0;entryX=0;entryY=0;entryDx=0;entryDy=5;entryPerimeter=0;" parent="1" source="T0xmaipd4D4o1bpUxQvA-114" edge="1">
          <mxGeometry width="80" relative="1" as="geometry">
            <mxPoint y="2030" as="sourcePoint" />
            <mxPoint x="55" y="1965" as="targetPoint" />
          </mxGeometry>
        </mxCell>
        <mxCell id="T0xmaipd4D4o1bpUxQvA-117" value="current_store_user" style="shape=umlFrame;whiteSpace=wrap;html=1;pointerEvents=0;width=120;height=30;" parent="1" vertex="1">
          <mxGeometry x="-480" y="1930" width="2800" height="190" as="geometry" />
        </mxCell>
        <mxCell id="T0xmaipd4D4o1bpUxQvA-118" value="check_login" style="html=1;verticalAlign=bottom;endArrow=block;curved=0;rounded=0;" parent="1" target="T0xmaipd4D4o1bpUxQvA-128" edge="1">
          <mxGeometry width="80" relative="1" as="geometry">
            <mxPoint x="65" y="1970" as="sourcePoint" />
            <mxPoint x="1056" y="1970" as="targetPoint" />
          </mxGeometry>
        </mxCell>
        <mxCell id="T0xmaipd4D4o1bpUxQvA-119" value="[login_state[login/wrong data]" style="html=1;verticalAlign=bottom;endArrow=open;dashed=1;endSize=8;curved=0;rounded=0;" parent="1" source="T0xmaipd4D4o1bpUxQvA-128" edge="1">
          <mxGeometry x="-0.0004" relative="1" as="geometry">
            <mxPoint x="1056" y="1999.41" as="sourcePoint" />
            <mxPoint x="65" y="1999.41" as="targetPoint" />
            <mxPoint as="offset" />
          </mxGeometry>
        </mxCell>
        <mxCell id="T0xmaipd4D4o1bpUxQvA-120" value="" style="html=1;points=[[0,0,0,0,5],[0,1,0,0,-5],[1,0,0,0,5],[1,1,0,0,-5]];perimeter=orthogonalPerimeter;outlineConnect=0;targetShapes=umlLifeline;portConstraint=eastwest;newEdgeStyle={&quot;curved&quot;:0,&quot;rounded&quot;:0};" parent="1" vertex="1">
          <mxGeometry x="55" y="1960" width="10" height="110" as="geometry" />
        </mxCell>
        <mxCell id="T0xmaipd4D4o1bpUxQvA-121" value="if false slef call" style="html=1;align=left;spacingLeft=2;endArrow=block;rounded=0;edgeStyle=orthogonalEdgeStyle;curved=0;rounded=0;exitX=1;exitY=1;exitDx=0;exitDy=-5;exitPerimeter=0;" parent="1" edge="1">
          <mxGeometry relative="1" as="geometry">
            <mxPoint x="65" y="2040" as="sourcePoint" />
            <Array as="points">
              <mxPoint x="65" y="2010" />
              <mxPoint x="160" y="2010" />
              <mxPoint x="160" y="2035" />
            </Array>
            <mxPoint x="65" y="2035" as="targetPoint" />
          </mxGeometry>
        </mxCell>
        <mxCell id="T0xmaipd4D4o1bpUxQvA-122" value="" style="html=1;points=[[0,0,0,0,5],[0,1,0,0,-5],[1,0,0,0,5],[1,1,0,0,-5]];perimeter=orthogonalPerimeter;outlineConnect=0;targetShapes=umlLifeline;portConstraint=eastwest;newEdgeStyle={&quot;curved&quot;:0,&quot;rounded&quot;:0};" parent="1" vertex="1">
          <mxGeometry x="-305" y="1760" width="10" height="80" as="geometry" />
        </mxCell>
        <mxCell id="T0xmaipd4D4o1bpUxQvA-123" value="chech_register" style="html=1;verticalAlign=bottom;endArrow=block;curved=0;rounded=0;entryX=0;entryY=0;entryDx=0;entryDy=5;entryPerimeter=0;" parent="1" source="T0xmaipd4D4o1bpUxQvA-122" target="T0xmaipd4D4o1bpUxQvA-125" edge="1">
          <mxGeometry width="80" relative="1" as="geometry">
            <mxPoint x="20" y="1830" as="sourcePoint" />
            <mxPoint x="-160" y="1770" as="targetPoint" />
          </mxGeometry>
        </mxCell>
        <mxCell id="T0xmaipd4D4o1bpUxQvA-124" value="new_store_user" style="shape=umlFrame;whiteSpace=wrap;html=1;pointerEvents=0;width=110;height=30;" parent="1" vertex="1">
          <mxGeometry x="-480" y="1740" width="2800" height="150" as="geometry" />
        </mxCell>
        <mxCell id="T0xmaipd4D4o1bpUxQvA-126" value="show database.sign_in result" style="html=1;verticalAlign=bottom;endArrow=open;dashed=1;endSize=8;curved=0;rounded=0;" parent="1" edge="1">
          <mxGeometry relative="1" as="geometry">
            <mxPoint x="205" y="1820" as="sourcePoint" />
            <mxPoint x="-295" y="1820" as="targetPoint" />
          </mxGeometry>
        </mxCell>
        <mxCell id="T0xmaipd4D4o1bpUxQvA-127" value="database.signin" style="html=1;verticalAlign=bottom;endArrow=block;curved=0;rounded=0;" parent="1" edge="1">
          <mxGeometry width="80" relative="1" as="geometry">
            <mxPoint x="216" y="1780" as="sourcePoint" />
            <mxPoint x="2181" y="1780" as="targetPoint" />
          </mxGeometry>
        </mxCell>
        <mxCell id="T0xmaipd4D4o1bpUxQvA-128" value="" style="html=1;points=[[0,0,0,0,5],[0,1,0,0,-5],[1,0,0,0,5],[1,1,0,0,-5]];perimeter=orthogonalPerimeter;outlineConnect=0;targetShapes=umlLifeline;portConstraint=eastwest;newEdgeStyle={&quot;curved&quot;:0,&quot;rounded&quot;:0};" parent="1" vertex="1">
          <mxGeometry x="2180" y="1960" width="10" height="80" as="geometry" />
        </mxCell>
        <mxCell id="T0xmaipd4D4o1bpUxQvA-129" value="" style="html=1;points=[[0,0,0,0,5],[0,1,0,0,-5],[1,0,0,0,5],[1,1,0,0,-5]];perimeter=orthogonalPerimeter;outlineConnect=0;targetShapes=umlLifeline;portConstraint=eastwest;newEdgeStyle={&quot;curved&quot;:0,&quot;rounded&quot;:0};" parent="1" vertex="1">
          <mxGeometry x="2180" y="1770" width="10" height="80" as="geometry" />
        </mxCell>
        <mxCell id="T0xmaipd4D4o1bpUxQvA-137" value="if true go to store" style="html=1;verticalAlign=bottom;endArrow=block;curved=0;rounded=0;" parent="1" edge="1">
          <mxGeometry width="80" relative="1" as="geometry">
            <mxPoint x="61" y="2050" as="sourcePoint" />
            <mxPoint x="1700.5" y="2050" as="targetPoint" />
          </mxGeometry>
        </mxCell>
        <mxCell id="T0xmaipd4D4o1bpUxQvA-144" value="confrim_button_clicked" style="html=1;verticalAlign=bottom;endArrow=block;curved=0;rounded=0;" parent="1" edge="1">
          <mxGeometry width="80" relative="1" as="geometry">
            <mxPoint x="1951" y="2330" as="sourcePoint" />
            <mxPoint x="2181" y="2330" as="targetPoint" />
          </mxGeometry>
        </mxCell>
        <mxCell id="T0xmaipd4D4o1bpUxQvA-146" value="done" style="html=1;verticalAlign=bottom;endArrow=open;dashed=1;endSize=8;curved=0;rounded=0;" parent="1" edge="1">
          <mxGeometry relative="1" as="geometry">
            <mxPoint x="2180" y="2350" as="sourcePoint" />
            <mxPoint x="1950" y="2350" as="targetPoint" />
          </mxGeometry>
        </mxCell>
        <mxCell id="T0xmaipd4D4o1bpUxQvA-149" value="press add button button" style="html=1;verticalAlign=bottom;endArrow=block;curved=0;rounded=0;" parent="1" edge="1" target="D9D6KRNomKYk3iCFj7v9-29">
          <mxGeometry width="80" relative="1" as="geometry">
            <mxPoint x="-295" y="2290" as="sourcePoint" />
            <mxPoint x="1420" y="2290" as="targetPoint" />
          </mxGeometry>
        </mxCell>
        <mxCell id="D9D6KRNomKYk3iCFj7v9-6" value="if true go to own_library" style="html=1;verticalAlign=bottom;endArrow=block;curved=0;rounded=0;" edge="1" parent="1">
          <mxGeometry width="80" relative="1" as="geometry">
            <mxPoint x="425" y="470" as="sourcePoint" />
            <mxPoint x="615" y="470" as="targetPoint" />
          </mxGeometry>
        </mxCell>
        <mxCell id="D9D6KRNomKYk3iCFj7v9-7" value="" style="html=1;verticalAlign=bottom;endArrow=open;dashed=1;endSize=8;curved=0;rounded=0;exitX=0;exitY=1;exitDx=0;exitDy=-5;exitPerimeter=0;" edge="1" parent="1" source="D9D6KRNomKYk3iCFj7v9-1" target="T0xmaipd4D4o1bpUxQvA-20">
          <mxGeometry relative="1" as="geometry">
            <mxPoint x="340" y="500" as="sourcePoint" />
            <mxPoint x="260" y="500" as="targetPoint" />
          </mxGeometry>
        </mxCell>
        <mxCell id="D9D6KRNomKYk3iCFj7v9-8" value="Display" style="edgeLabel;html=1;align=center;verticalAlign=middle;resizable=0;points=[];" vertex="1" connectable="0" parent="D9D6KRNomKYk3iCFj7v9-7">
          <mxGeometry x="-0.045" y="-2" relative="1" as="geometry">
            <mxPoint x="-2" y="-13" as="offset" />
          </mxGeometry>
        </mxCell>
        <mxCell id="D9D6KRNomKYk3iCFj7v9-10" value="" style="html=1;points=[[0,0,0,0,5],[0,1,0,0,-5],[1,0,0,0,5],[1,1,0,0,-5]];perimeter=orthogonalPerimeter;outlineConnect=0;targetShapes=umlLifeline;portConstraint=eastwest;newEdgeStyle={&quot;curved&quot;:0,&quot;rounded&quot;:0};" vertex="1" parent="1">
          <mxGeometry x="616" y="530" width="10" height="40" as="geometry" />
        </mxCell>
        <mxCell id="D9D6KRNomKYk3iCFj7v9-11" value="user press on a book" style="html=1;verticalAlign=bottom;endArrow=block;curved=0;rounded=0;" edge="1" parent="1">
          <mxGeometry width="80" relative="1" as="geometry">
            <mxPoint x="50" y="540" as="sourcePoint" />
            <mxPoint x="621" y="540" as="targetPoint" />
          </mxGeometry>
        </mxCell>
        <mxCell id="D9D6KRNomKYk3iCFj7v9-13" value="" style="html=1;verticalAlign=bottom;endArrow=open;dashed=1;endSize=8;curved=0;rounded=0;" edge="1" parent="1" target="T0xmaipd4D4o1bpUxQvA-79">
          <mxGeometry relative="1" as="geometry">
            <mxPoint x="2180" y="579.41" as="sourcePoint" />
            <mxPoint x="1430" y="579.41" as="targetPoint" />
          </mxGeometry>
        </mxCell>
        <mxCell id="D9D6KRNomKYk3iCFj7v9-14" value="query_result&lt;br&gt;" style="edgeLabel;html=1;align=center;verticalAlign=middle;resizable=0;points=[];" vertex="1" connectable="0" parent="D9D6KRNomKYk3iCFj7v9-13">
          <mxGeometry x="0.0407" y="2" relative="1" as="geometry">
            <mxPoint y="9" as="offset" />
          </mxGeometry>
        </mxCell>
        <mxCell id="T0xmaipd4D4o1bpUxQvA-79" value="" style="html=1;points=[[0,0,0,0,5],[0,1,0,0,-5],[1,0,0,0,5],[1,1,0,0,-5]];perimeter=orthogonalPerimeter;outlineConnect=0;targetShapes=umlLifeline;portConstraint=eastwest;newEdgeStyle={&quot;curved&quot;:0,&quot;rounded&quot;:0};" parent="1" vertex="1">
          <mxGeometry x="1455" y="530" width="10" height="310" as="geometry" />
        </mxCell>
        <mxCell id="D9D6KRNomKYk3iCFj7v9-15" value="fav" style="html=1;verticalAlign=bottom;endArrow=block;curved=0;rounded=0;" edge="1" parent="1">
          <mxGeometry width="80" relative="1" as="geometry">
            <mxPoint x="39.32352941176464" y="630" as="sourcePoint" />
            <mxPoint x="1455" y="630" as="targetPoint" />
          </mxGeometry>
        </mxCell>
        <mxCell id="D9D6KRNomKYk3iCFj7v9-16" value="add_to_favourite" style="html=1;verticalAlign=bottom;endArrow=block;curved=0;rounded=0;" edge="1" parent="1">
          <mxGeometry width="80" relative="1" as="geometry">
            <mxPoint x="1461.4999999999995" y="660" as="sourcePoint" />
            <mxPoint x="2181" y="660" as="targetPoint" />
          </mxGeometry>
        </mxCell>
        <mxCell id="D9D6KRNomKYk3iCFj7v9-17" value="done" style="html=1;verticalAlign=bottom;endArrow=open;dashed=1;endSize=8;curved=0;rounded=0;" edge="1" parent="1">
          <mxGeometry relative="1" as="geometry">
            <mxPoint x="2185.68" y="680" as="sourcePoint" />
            <mxPoint x="1465.003529411765" y="680" as="targetPoint" />
          </mxGeometry>
        </mxCell>
        <mxCell id="D9D6KRNomKYk3iCFj7v9-18" value="done" style="html=1;verticalAlign=bottom;endArrow=open;dashed=1;endSize=8;curved=0;rounded=0;" edge="1" parent="1">
          <mxGeometry relative="1" as="geometry">
            <mxPoint x="1454.9999999999995" y="700" as="sourcePoint" />
            <mxPoint x="45" y="700" as="targetPoint" />
            <mxPoint as="offset" />
          </mxGeometry>
        </mxCell>
        <mxCell id="D9D6KRNomKYk3iCFj7v9-19" value="delete" style="html=1;verticalAlign=bottom;endArrow=block;curved=0;rounded=0;" edge="1" parent="1">
          <mxGeometry width="80" relative="1" as="geometry">
            <mxPoint x="45" y="740" as="sourcePoint" />
            <mxPoint x="1455" y="740" as="targetPoint" />
          </mxGeometry>
        </mxCell>
        <mxCell id="D9D6KRNomKYk3iCFj7v9-20" value="delete_from_;ibrary" style="html=1;verticalAlign=bottom;endArrow=block;curved=0;rounded=0;" edge="1" parent="1">
          <mxGeometry width="80" relative="1" as="geometry">
            <mxPoint x="1465" y="750" as="sourcePoint" />
            <mxPoint x="2185.5" y="750" as="targetPoint" />
          </mxGeometry>
        </mxCell>
        <mxCell id="D9D6KRNomKYk3iCFj7v9-21" value="done" style="html=1;verticalAlign=bottom;endArrow=open;dashed=1;endSize=8;curved=0;rounded=0;" edge="1" parent="1">
          <mxGeometry relative="1" as="geometry">
            <mxPoint x="2180" y="770" as="sourcePoint" />
            <mxPoint x="1465" y="770" as="targetPoint" />
          </mxGeometry>
        </mxCell>
        <mxCell id="D9D6KRNomKYk3iCFj7v9-22" value="done" style="html=1;verticalAlign=bottom;endArrow=open;dashed=1;endSize=8;curved=0;rounded=0;" edge="1" parent="1">
          <mxGeometry relative="1" as="geometry">
            <mxPoint x="1455" y="780" as="sourcePoint" />
            <mxPoint x="45" y="780" as="targetPoint" />
          </mxGeometry>
        </mxCell>
        <mxCell id="D9D6KRNomKYk3iCFj7v9-23" value="back" style="html=1;verticalAlign=bottom;endArrow=block;curved=0;rounded=0;" edge="1" parent="1">
          <mxGeometry width="80" relative="1" as="geometry">
            <mxPoint x="45" y="800" as="sourcePoint" />
            <mxPoint x="1460.5" y="800" as="targetPoint" />
          </mxGeometry>
        </mxCell>
        <mxCell id="D9D6KRNomKYk3iCFj7v9-24" value="show previous window" style="html=1;verticalAlign=bottom;endArrow=open;dashed=1;endSize=8;curved=0;rounded=0;" edge="1" parent="1">
          <mxGeometry relative="1" as="geometry">
            <mxPoint x="1455" y="820" as="sourcePoint" />
            <mxPoint x="45" y="820" as="targetPoint" />
          </mxGeometry>
        </mxCell>
        <mxCell id="T0xmaipd4D4o1bpUxQvA-125" value="" style="html=1;points=[[0,0,0,0,5],[0,1,0,0,-5],[1,0,0,0,5],[1,1,0,0,-5]];perimeter=orthogonalPerimeter;outlineConnect=0;targetShapes=umlLifeline;portConstraint=eastwest;newEdgeStyle={&quot;curved&quot;:0,&quot;rounded&quot;:0};" parent="1" vertex="1">
          <mxGeometry x="205" y="1760" width="10" height="80" as="geometry" />
        </mxCell>
        <mxCell id="D9D6KRNomKYk3iCFj7v9-26" value="registeration_state[existet/signed succefuly]]" style="html=1;verticalAlign=bottom;endArrow=open;dashed=1;endSize=8;curved=0;rounded=0;" edge="1" parent="1" source="T0xmaipd4D4o1bpUxQvA-129" target="T0xmaipd4D4o1bpUxQvA-125">
          <mxGeometry relative="1" as="geometry">
            <mxPoint x="1610" y="1830" as="sourcePoint" />
            <mxPoint x="1530" y="1830" as="targetPoint" />
          </mxGeometry>
        </mxCell>
        <mxCell id="D9D6KRNomKYk3iCFj7v9-28" value="display" style="html=1;verticalAlign=bottom;endArrow=open;dashed=1;endSize=8;curved=0;rounded=0;" edge="1" parent="1">
          <mxGeometry relative="1" as="geometry">
            <mxPoint x="1700" y="2080" as="sourcePoint" />
            <mxPoint x="-295" y="2080" as="targetPoint" />
          </mxGeometry>
        </mxCell>
        <mxCell id="D9D6KRNomKYk3iCFj7v9-30" value="add_button" style="html=1;verticalAlign=bottom;endArrow=block;curved=0;rounded=0;" edge="1" parent="1">
          <mxGeometry width="80" relative="1" as="geometry">
            <mxPoint x="1710" y="2310" as="sourcePoint" />
            <mxPoint x="1940" y="2310" as="targetPoint" />
          </mxGeometry>
        </mxCell>
        <mxCell id="T0xmaipd4D4o1bpUxQvA-87" value="gui" style="html=1;verticalAlign=bottom;endArrow=block;curved=0;rounded=0;entryX=0;entryY=0;entryDx=0;entryDy=5;entryPerimeter=0;" parent="1" target="T0xmaipd4D4o1bpUxQvA-86" edge="1">
          <mxGeometry width="80" relative="1" as="geometry">
            <mxPoint x="46" y="1465" as="sourcePoint" />
            <mxPoint x="791" y="1470" as="targetPoint" />
          </mxGeometry>
        </mxCell>
        <mxCell id="D9D6KRNomKYk3iCFj7v9-31" value="query result" style="html=1;verticalAlign=bottom;endArrow=open;dashed=1;endSize=8;curved=0;rounded=0;" edge="1" parent="1" source="T0xmaipd4D4o1bpUxQvA-90" target="T0xmaipd4D4o1bpUxQvA-86">
          <mxGeometry relative="1" as="geometry">
            <mxPoint x="1985" y="1500" as="sourcePoint" />
            <mxPoint x="1720" y="1510" as="targetPoint" />
          </mxGeometry>
        </mxCell>
        <mxCell id="D9D6KRNomKYk3iCFj7v9-34" value="display" style="html=1;verticalAlign=bottom;endArrow=open;dashed=1;endSize=8;curved=0;rounded=0;exitX=0;exitY=1;exitDx=0;exitDy=-5;exitPerimeter=0;" edge="1" parent="1">
          <mxGeometry relative="1" as="geometry">
            <mxPoint x="1700" y="1525" as="sourcePoint" />
            <mxPoint x="45" y="1520" as="targetPoint" />
          </mxGeometry>
        </mxCell>
        <mxCell id="D9D6KRNomKYk3iCFj7v9-35" value="done" style="html=1;verticalAlign=bottom;endArrow=open;dashed=1;endSize=8;curved=0;rounded=0;" edge="1" parent="1">
          <mxGeometry relative="1" as="geometry">
            <mxPoint x="1940" y="2360" as="sourcePoint" />
            <mxPoint x="1710" y="2360" as="targetPoint" />
          </mxGeometry>
        </mxCell>
        <mxCell id="D9D6KRNomKYk3iCFj7v9-36" value="added succeffuly" style="html=1;verticalAlign=bottom;endArrow=open;dashed=1;endSize=8;curved=0;rounded=0;" edge="1" parent="1">
          <mxGeometry relative="1" as="geometry">
            <mxPoint x="1700" y="2370" as="sourcePoint" />
            <mxPoint x="-295" y="2370" as="targetPoint" />
          </mxGeometry>
        </mxCell>
      </root>
    </mxGraphModel>
  </diagram>
</mxfile>
